<svg width="60" height="60" viewBox="0 0 60 60" fill="none" xmlns="http://www.w3.org/2000/svg">
<g id="Group 5">
<circle id="Ellipse 5" cx="30" cy="30" r="29.5" stroke="#B37D68"/>
<g id="instagram">
<path d="M30 21.8072C32.6506 21.8072 33.0121 21.8072 34.0964 21.8072C35.0602 21.8072 35.5422 22.0482 35.9036 22.1687C36.3855 22.4096 36.747 22.5301 37.1084 22.8916C37.4699 23.253 37.7108 23.6145 37.8313 24.0964C37.9518 24.4578 38.0723 24.9398 38.1928 25.9036C38.1928 26.988 38.1928 27.2289 38.1928 30C38.1928 32.7711 38.1928 33.0121 38.1928 34.0964C38.1928 35.0602 37.9518 35.5422 37.8313 35.9036C37.5904 36.3855 37.4699 36.747 37.1084 37.1084C36.747 37.4699 36.3855 37.7108 35.9036 37.8313C35.5422 37.9518 35.0602 38.0723 34.0964 38.1928C33.0121 38.1928 32.7711 38.1928 30 38.1928C27.2289 38.1928 26.988 38.1928 25.9036 38.1928C24.9398 38.1928 24.4578 37.9518 24.0964 37.8313C23.6145 37.5904 23.253 37.4699 22.8916 37.1084C22.5301 36.747 22.2892 36.3855 22.1687 35.9036C22.0482 35.5422 21.9277 35.0602 21.8072 34.0964C21.8072 33.0121 21.8072 32.7711 21.8072 30C21.8072 27.2289 21.8072 26.988 21.8072 25.9036C21.8072 24.9398 22.0482 24.4578 22.1687 24.0964C22.4096 23.6145 22.5301 23.253 22.8916 22.8916C23.253 22.5301 23.6145 22.2892 24.0964 22.1687C24.4578 22.0482 24.9398 21.9277 25.9036 21.8072C26.988 21.8072 27.3494 21.8072 30 21.8072ZM30 20C27.2289 20 26.988 20 25.9036 20C24.8193 20 24.0964 20.241 23.494 20.4819C22.8916 20.7229 22.2892 21.0843 21.6867 21.6867C21.0843 22.2892 20.8434 22.7711 20.4819 23.494C20.241 24.0964 20.1205 24.8193 20 25.9036C20 26.988 20 27.3494 20 30C20 32.7711 20 33.0121 20 34.0964C20 35.1807 20.241 35.9036 20.4819 36.506C20.7229 37.1084 21.0843 37.7108 21.6867 38.3133C22.2892 38.9157 22.7711 39.1566 23.494 39.5181C24.0964 39.759 24.8193 39.8795 25.9036 40C26.988 40 27.3494 40 30 40C32.6506 40 33.0121 40 34.0964 40C35.1807 40 35.9036 39.759 36.506 39.5181C37.1084 39.2771 37.7108 38.9157 38.3133 38.3133C38.9157 37.7108 39.1566 37.2289 39.5181 36.506C39.759 35.9036 39.8795 35.1807 40 34.0964C40 33.0121 40 32.6506 40 30C40 27.3494 40 26.988 40 25.9036C40 24.8193 39.759 24.0964 39.5181 23.494C39.2771 22.8916 38.9157 22.2892 38.3133 21.6867C37.7108 21.0843 37.2289 20.8434 36.506 20.4819C35.9036 20.241 35.1807 20.1205 34.0964 20C33.0121 20 32.7711 20 30 20Z" fill="#B37D68"/>
<path d="M30 24.8193C27.1084 24.8193 24.8193 27.1084 24.8193 30C24.8193 32.8916 27.1084 35.1807 30 35.1807C32.8916 35.1807 35.1807 32.8916 35.1807 30C35.1807 27.1084 32.8916 24.8193 30 24.8193ZM30 33.3735C28.1928 33.3735 26.6265 31.9277 26.6265 30C26.6265 28.1928 28.0723 26.6265 30 26.6265C31.8072 26.6265 33.3735 28.0723 33.3735 30C33.3735 31.8072 31.8072 33.3735 30 33.3735Z" fill="#B37D68"/>
<path d="M35.3012 25.9036C35.9666 25.9036 36.506 25.3642 36.506 24.6988C36.506 24.0334 35.9666 23.494 35.3012 23.494C34.6358 23.494 34.0964 24.0334 34.0964 24.6988C34.0964 25.3642 34.6358 25.9036 35.3012 25.9036Z" fill="#B37D68"/>
</g>
</g>
</svg>
