<svg width="60" height="60" viewBox="0 0 60 60" fill="none" xmlns="http://www.w3.org/2000/svg">
<circle cx="30" cy="30" r="29.5" stroke="#B37D68"/>
<path d="M37.0732 22.9167C35.1916 21.0417 32.6829 20 30.0348 20C24.5296 20 20.0697 24.4444 20.0697 29.9306C20.0697 31.6667 20.5575 33.4028 21.3937 34.8611L20 40L25.2962 38.6111C26.7596 39.375 28.3624 39.7917 30.0348 39.7917C35.5401 39.7917 40 35.3472 40 29.8611C39.9303 27.2917 38.9547 24.7917 37.0732 22.9167ZM34.8432 33.4722C34.6341 34.0278 33.6585 34.5833 33.1707 34.6528C32.7526 34.7222 32.1951 34.7222 31.6376 34.5833C31.2892 34.4444 30.8014 34.3056 30.2439 34.0278C27.7352 32.9861 26.1324 30.4861 25.993 30.2778C25.8537 30.1389 24.9477 28.9583 24.9477 27.7083C24.9477 26.4583 25.5749 25.9028 25.784 25.625C25.993 25.3472 26.2718 25.3472 26.4808 25.3472C26.6202 25.3472 26.8293 25.3472 26.9686 25.3472C27.108 25.3472 27.3171 25.2778 27.5261 25.7639C27.7352 26.25 28.223 27.5 28.2927 27.5694C28.3624 27.7083 28.3624 27.8472 28.2927 27.9861C28.223 28.125 28.1533 28.2639 28.0139 28.4028C27.8746 28.5417 27.7352 28.75 27.6655 28.8194C27.5261 28.9583 27.3868 29.0972 27.5261 29.3056C27.6655 29.5833 28.1533 30.3472 28.9199 31.0417C29.8955 31.875 30.662 32.1528 30.9408 32.2917C31.2195 32.4306 31.3589 32.3611 31.4983 32.2222C31.6376 32.0833 32.1254 31.5278 32.2648 31.25C32.4042 30.9722 32.6132 31.0417 32.8223 31.1111C33.0314 31.1806 34.2857 31.8056 34.4948 31.9444C34.7735 32.0833 34.9129 32.1528 34.9826 32.2222C35.0523 32.4306 35.0523 32.9167 34.8432 33.4722Z" fill="#B37D68"/>
</svg>
