<svg width="14" height="14" viewBox="0 0 14 14" fill="none" xmlns="http://www.w3.org/2000/svg">
<rect x="0.5" y="0.5" width="13" height="13" rx="6.5" stroke="#9D9D9C"/>
<path d="M6.42662 8.95455V8.91193C6.43135 8.45975 6.4787 8.09991 6.56866 7.83239C6.65862 7.56487 6.78646 7.34825 6.95218 7.18253C7.1179 7.01681 7.31677 6.86411 7.54877 6.72443C7.68845 6.6392 7.81393 6.53859 7.9252 6.42259C8.03646 6.30421 8.12406 6.16809 8.18798 6.0142C8.25427 5.86032 8.28741 5.68987 8.28741 5.50284C8.28741 5.27083 8.23296 5.0696 8.12406 4.89915C8.01516 4.72869 7.86956 4.5973 7.68727 4.50497C7.50498 4.41264 7.30256 4.36648 7.08002 4.36648C6.8859 4.36648 6.69887 4.40672 6.51895 4.48722C6.33902 4.56771 6.18869 4.69437 6.06795 4.86719C5.94721 5.04001 5.87737 5.2661 5.85843 5.54545H4.96355C4.98249 5.14299 5.08665 4.79853 5.27605 4.51207C5.46781 4.22562 5.71994 4.00663 6.03244 3.85511C6.34731 3.7036 6.6965 3.62784 7.08002 3.62784C7.49669 3.62784 7.85891 3.7107 8.16667 3.87642C8.47681 4.04214 8.71592 4.26941 8.884 4.55824C9.05446 4.84706 9.13968 5.17614 9.13968 5.54545C9.13968 5.80587 9.09944 6.04143 9.01895 6.25213C8.94082 6.46283 8.82718 6.65104 8.67804 6.81676C8.53126 6.98248 8.3537 7.12926 8.14537 7.2571C7.93703 7.38731 7.77013 7.52462 7.64466 7.66903C7.51918 7.81108 7.42804 7.98035 7.37122 8.17685C7.3144 8.37334 7.28362 8.61837 7.27889 8.91193V8.95455H6.42662ZM6.88116 11.0568C6.70597 11.0568 6.55564 10.9941 6.43017 10.8686C6.30469 10.7431 6.24196 10.5928 6.24196 10.4176C6.24196 10.2424 6.30469 10.0921 6.43017 9.96662C6.55564 9.84115 6.70597 9.77841 6.88116 9.77841C7.05635 9.77841 7.20668 9.84115 7.33216 9.96662C7.45763 10.0921 7.52037 10.2424 7.52037 10.4176C7.52037 10.5336 7.49077 10.6402 7.43159 10.7372C7.37477 10.8343 7.29783 10.9124 7.20076 10.9716C7.10607 11.0284 6.99953 11.0568 6.88116 11.0568Z" fill="#9D9D9C"/>
</svg>
