<svg width="65" height="58" viewBox="0 0 65 58" fill="none" xmlns="http://www.w3.org/2000/svg">
<path d="M2.15486 35.1517H4.21588L5.86293 45.4304H3.94284L3.74466 43.8538H2.15927L1.9655 45.4304H0.0454102L1.69686 35.1517H3.6742V36.9925H3.04445L2.95637 37.6663L2.8727 36.9925H2.15486V35.1517ZM2.37065 42.1186H3.52007L2.95637 37.6399L2.37065 42.1186ZM3.04445 36.9925H2.8727L2.63929 35.1737H3.26904L3.04445 36.9925ZM6.89343 45.4524V35.1693H8.80031V39.331H10.3505V35.1693H12.2485V45.4304H10.3505V41.1762H8.80031V45.4304L6.89343 45.4524ZM15.5338 36.9925V45.4259H13.6137V35.1737H18.1409V36.9925H15.5338ZM22.58 45.4259V37.0586H21.0387V42.7836C21.0394 43.1796 20.9936 43.5742 20.9021 43.9595C20.8257 44.2832 20.6749 44.5848 20.4618 44.8402C20.2502 45.0919 19.9771 45.2845 19.6691 45.3995C19.2845 45.5344 18.8786 45.5985 18.4712 45.5889V43.7216C18.5745 43.7258 18.6769 43.7013 18.7671 43.6507C18.8573 43.6002 18.9317 43.5257 18.9821 43.4354C19.0351 43.3428 19.071 43.2413 19.0878 43.1359C19.1104 43.0154 19.1222 42.8931 19.123 42.7704V35.1517H24.5001V45.4304L22.58 45.4259ZM31.5243 45.4259V35.1693H29.2519L27.7326 40.6742L27.7898 35.1693H25.8697V45.4304H27.988L29.6747 39.6349L29.6086 45.4392L31.5243 45.4259ZM36.4258 45.4259L36.4698 39.6349L34.7611 45.4392H32.6825V35.1693H34.5938L34.5321 40.6742L36.0559 35.1693H38.3591V45.4304L36.4258 45.4259ZM37.8394 32.6899C37.8384 32.9435 37.8013 33.1955 37.7293 33.4386C37.667 33.6686 37.5524 33.881 37.3946 34.0595C37.2266 34.2508 37.0173 34.4014 36.7825 34.4999C36.4821 34.6154 36.1619 34.6708 35.8401 34.6629C35.5126 34.6704 35.1867 34.6151 34.88 34.4999C34.6453 34.4014 34.436 34.2508 34.2679 34.0595C34.1093 33.8816 33.9947 33.6689 33.9332 33.4386C33.8704 33.194 33.8378 32.9425 33.8363 32.6899H34.8756C34.8656 32.8156 34.8836 32.942 34.9285 33.0599C34.946 33.1637 34.985 33.2626 35.043 33.3505C35.1183 33.4378 35.2156 33.5032 35.3248 33.5399C35.4922 33.5883 35.666 33.6106 35.8401 33.6059C36.0057 33.6148 36.1716 33.5924 36.3289 33.5399C36.4365 33.507 36.5327 33.4444 36.6064 33.3593C36.6735 33.2742 36.7202 33.1747 36.7429 33.0687C36.7553 32.9415 36.7744 32.8151 36.8001 32.6899H37.8394ZM44.4805 42.0834V42.8409C44.4813 43.2026 44.4399 43.5633 44.3572 43.9154C44.2798 44.2389 44.1291 44.5402 43.9168 44.7962C43.7082 45.0463 43.4402 45.2402 43.1373 45.3599C42.3369 45.6448 41.4627 45.6448 40.6623 45.3599C40.348 45.237 40.0726 45.0316 39.8652 44.7654C39.6663 44.505 39.5266 44.2044 39.4557 43.8846C39.3726 43.5176 39.3313 43.1423 39.3324 42.766V37.8293C39.3313 37.4573 39.3726 37.0865 39.4557 36.7239C39.5293 36.405 39.6688 36.1049 39.8652 35.8431C40.0712 35.5749 40.3426 35.3641 40.6535 35.231C41.4614 34.9548 42.3382 34.9548 43.1461 35.231C43.4536 35.3575 43.7245 35.5588 43.9344 35.8167C44.1438 36.0746 44.2941 36.3752 44.3748 36.6975C44.4559 37.0528 44.4958 37.4163 44.4937 37.7808V38.5163H42.5252V37.7808C42.534 37.6753 42.534 37.5693 42.5252 37.4637C42.5113 37.3628 42.4816 37.2647 42.4371 37.1731C42.3923 37.0856 42.3255 37.0112 42.2433 36.9573C42.1397 36.8954 42.0204 36.8648 41.8998 36.8692C41.7893 36.8617 41.679 36.8875 41.5833 36.9433C41.4875 36.999 41.4106 37.0821 41.3625 37.1819C41.314 37.2751 41.2841 37.3768 41.2745 37.4814C41.2657 37.5972 41.2657 37.7135 41.2745 37.8293V42.7572C41.2657 42.8686 41.2657 42.9805 41.2745 43.0919C41.2831 43.1998 41.3099 43.3056 41.3537 43.4046C41.4003 43.4971 41.4701 43.576 41.5563 43.6336C41.661 43.6929 41.7795 43.7233 41.8998 43.7216C42.0155 43.7249 42.1299 43.6959 42.2301 43.638C42.3108 43.586 42.3774 43.5149 42.4239 43.431C42.4749 43.3446 42.5079 43.2487 42.5208 43.1491C42.5296 43.0407 42.5296 42.9317 42.5208 42.8233V42.0746L44.4805 42.0834ZM45.6651 45.4524V35.1693H47.572V39.331H48.0124L49.3335 35.1693H51.3549L49.7871 40.1589L51.4606 45.4171H49.4436L48.0961 41.163H47.5764V45.4171L45.6651 45.4524ZM57.8594 45.4524V35.1693H55.5342L54.0061 40.6742L54.0677 35.1693H52.1564V45.4304H54.2615L55.9966 39.6349L55.9394 45.4392L57.8594 45.4524ZM62.761 45.4524L62.8094 39.6349L61.0919 45.4392H58.9648V35.1693H60.8761L60.8188 40.6742L62.3514 35.1693H64.6326V45.4304L62.761 45.4524ZM64.1085 32.7164C64.1212 32.9595 64.0959 33.2032 64.0337 33.4386C63.971 33.6675 63.8582 33.8797 63.7034 34.0595C63.5337 34.251 63.3229 34.4015 63.0868 34.4999C62.7879 34.6154 62.4692 34.6708 62.1488 34.6629C61.8227 34.6708 61.4982 34.6155 61.1932 34.4999C60.9552 34.4027 60.7427 34.252 60.5722 34.0595C60.4149 33.8813 60.3018 33.6686 60.2419 33.4386C60.176 33.1946 60.1449 32.9426 60.1495 32.6899H61.1888C61.1802 32.8149 61.1952 32.9404 61.2328 33.0599C61.2515 33.1648 61.2937 33.2641 61.3561 33.3505C61.4271 33.4385 61.5219 33.5042 61.6292 33.5399C61.798 33.5881 61.9733 33.6104 62.1488 33.6059C62.313 33.6153 62.4775 33.5929 62.6332 33.5399C62.7424 33.5104 62.8395 33.4472 62.9107 33.3593C62.9796 33.2752 63.0265 33.1754 63.0472 33.0687C63.0752 32.9439 63.0943 32.8174 63.1045 32.6899L64.1085 32.7164ZM11.3501 57.8625V47.5971H13.257V51.7543H13.6974L15.0186 47.5971H17.04L15.459 52.6043L17.1368 57.8625H15.1155L13.7943 53.6039H13.257V57.8625H11.3501ZM21.1444 54.1368C21.1413 54.0376 21.1295 53.9389 21.1091 53.8417C21.086 53.753 21.0439 53.6704 20.9858 53.5995C20.9284 53.5272 20.8544 53.4697 20.77 53.4322C20.672 53.3877 20.5649 53.3666 20.4574 53.3705H19.7792V56.0129H20.453C20.5482 56.0243 20.6449 56.0149 20.7361 55.9852C20.8274 55.9556 20.9111 55.9064 20.9814 55.8411C21.105 55.6739 21.1616 55.4666 21.14 55.2598L21.1444 54.1368ZM21.0607 50.1425C21.0645 49.9425 21.0077 49.7459 20.8977 49.5788C20.8327 49.5063 20.751 49.4508 20.6597 49.4171C20.5684 49.3833 20.4702 49.3723 20.3737 49.385H19.7704V51.631H20.2504C20.3703 51.6488 20.4927 51.6402 20.6091 51.606C20.7254 51.5718 20.8329 51.5127 20.9242 51.4328C21.0549 51.2338 21.1139 50.9961 21.0915 50.759L21.0607 50.1425ZM23.0821 55.229C23.096 55.6314 23.05 56.0336 22.9455 56.4224C22.8419 56.7353 22.6653 57.0191 22.4303 57.2503C22.2046 57.4715 21.9278 57.6334 21.6244 57.7216C21.2557 57.8223 20.8748 57.8712 20.4926 57.8669H17.8503V47.5971H20.4309C20.8255 47.5916 21.2183 47.6511 21.5936 47.7732C21.8882 47.8739 22.1572 48.0377 22.3818 48.2532C22.5864 48.464 22.7374 48.7207 22.8222 49.0019C22.9212 49.3152 22.9703 49.6422 22.9676 49.9707V50.5124C22.985 50.9456 22.9115 51.3777 22.7518 51.7807C22.6883 51.9226 22.5954 52.0494 22.4793 52.1526C22.3631 52.2559 22.2263 52.3333 22.078 52.3797C22.3696 52.4785 22.6113 52.687 22.7518 52.961C22.9328 53.3116 23.0208 53.7028 23.0072 54.0972L23.0821 55.229ZM25.764 47.5838H27.7898L29.4457 57.8625H27.5608L27.3494 56.2859H25.786L25.5879 57.8625H23.6722L25.3192 47.5838H27.2922V49.3982H26.658L26.5699 50.072L26.4907 49.3982H25.7772L25.764 47.5838ZM25.9886 54.5464H27.1204L26.5523 50.072L25.9886 54.5464ZM26.6624 49.3982H26.4951L26.2661 47.5838H26.909L26.6624 49.3982ZM35.4702 51.8996C35.4783 52.3271 35.4143 52.7529 35.2808 53.1591C35.1765 53.4688 34.9964 53.7474 34.7567 53.9695C34.5242 54.184 34.2407 54.3355 33.9332 54.4098C33.579 54.4983 33.2149 54.5413 32.8498 54.5376H32.3038V57.9065H30.4321V47.5971H32.8939C33.2536 47.596 33.6118 47.6419 33.9596 47.7336C34.2695 47.8081 34.5557 47.9592 34.7919 48.1731C35.0281 48.387 35.2068 48.6569 35.3116 48.9579C35.4468 49.3484 35.5109 49.7601 35.501 50.1733L35.4702 51.8996ZM33.5501 50.1733C33.5619 49.9846 33.5074 49.7976 33.3959 49.6449C33.325 49.5786 33.2408 49.5283 33.149 49.4971C33.0571 49.466 32.9596 49.4548 32.8631 49.4643H32.3038V52.6967H32.8234C32.9257 52.7118 33.03 52.7025 33.128 52.6696C33.2259 52.6367 33.3147 52.5811 33.3871 52.5074C33.5105 52.3333 33.5682 52.1211 33.5501 51.9084V50.1733ZM39.4953 49.4511V57.8625H37.5972V49.4511H35.9942V47.5971H41.1247V49.4511H39.4953ZM43.3399 47.5838H45.4053L47.0567 57.8625H45.1719L44.9605 56.2859H43.3663L43.1461 57.8625H41.2524L42.9039 47.5838H44.8812V49.3982H44.2074L44.1238 50.072L44.0401 49.3982H43.3619L43.3399 47.5838ZM43.5689 54.5464H44.7007L44.137 50.072L43.5689 54.5464ZM44.2427 49.3982H44.0841L43.8287 47.5838H44.5025L44.2427 49.3982ZM51.5091 57.8625V49.4643H49.9457V55.229C49.9541 55.6233 49.9111 56.0171 49.818 56.4004C49.7362 56.713 49.5858 57.0033 49.3776 57.2503C49.1644 57.4983 48.8938 57.6903 48.5893 57.8096C48.2017 57.9448 47.793 58.0089 47.3826 57.999V56.145C47.4935 56.1534 47.6043 56.1273 47.6997 56.0701C47.7837 56.0213 47.8535 55.9515 47.9023 55.8675C47.9517 55.7721 47.9859 55.6696 48.0036 55.5637C48.0168 55.4407 48.0168 55.3167 48.0036 55.1937V47.5838H53.3763V57.8625H51.5091ZM32.1937 1.58539V1.69109C32.0131 2.40451 31.6608 3.71246 31.3437 4.7738C31.0829 5.66915 30.6556 6.50731 30.0842 7.24437V9.62687H30.3969C30.3969 9.62687 29.7231 10.5076 28.8687 11.5822C28.2522 12.3352 27.4507 13.3437 27.0367 13.8898L26.9883 13.9471L26.9222 14.0307H37.6501L37.6148 13.9779L36.7341 12.8813C36.3994 12.4409 36.0206 11.9785 35.7256 11.5822C34.8712 10.5164 34.1974 9.62687 34.1974 9.62687H34.5057V7.25318C33.9346 6.51528 33.506 5.67747 33.2418 4.78261C32.9291 3.73889 32.568 2.40451 32.3963 1.69989V1.55016L32.1937 1.58539ZM32.3742 1.58539V0.678196H32.2862L32.3742 0.854351V0.303867C32.3974 0.289474 32.4165 0.269346 32.4296 0.245431C32.4427 0.221515 32.4494 0.194621 32.4491 0.167347C32.4491 0.122964 32.4315 0.0803985 32.4001 0.0490148C32.3687 0.0176312 32.3261 0 32.2817 0C32.2374 0 32.1948 0.0176312 32.1634 0.0490148C32.132 0.0803985 32.1144 0.122964 32.1144 0.167347C32.115 0.194955 32.1225 0.221968 32.1364 0.245848C32.1503 0.269728 32.17 0.289693 32.1937 0.303867V0.823524L32.2817 0.678196H32.1937V1.58539H32.3742ZM25.8125 26.1414V26.8989H27.0191V30.5893H29.1726V26.8989H30.1062V30.5893H31.8061V26.8989H32.7398V30.5893H34.4396V26.8989H35.3821V30.5893H37.5268V26.8989H38.6189V26.1414H25.8125ZM26.7549 13.5419V17.272H25.9974V24.8511H25.8125V25.2914H38.6057V24.8511H38.5397V17.272H37.7998V13.5419H37.7602V13.652H37.8042V13.3922C37.8162 13.3847 37.8262 13.3744 37.8331 13.3621C37.84 13.3497 37.8437 13.3359 37.8438 13.3217C37.8438 13.3007 37.8355 13.2805 37.8206 13.2657C37.8058 13.2508 37.7856 13.2424 37.7646 13.2424C37.7538 13.2418 37.743 13.2435 37.7329 13.2472C37.7228 13.2509 37.7135 13.2566 37.7057 13.264C37.6978 13.2715 37.6916 13.2804 37.6873 13.2903C37.6831 13.3002 37.6809 13.3109 37.6809 13.3217C37.6812 13.3353 37.6845 13.3487 37.6906 13.3609C37.6967 13.3731 37.7054 13.3837 37.7161 13.3922V13.652H37.7646V13.5639H37.7161V14.2774H26.843V13.5419H26.7549ZM35.4481 15.0524H36.1572V16.6554H35.4481V15.0524ZM34.4441 15.0524H35.1531V16.6554H34.4441V15.0524ZM33.4356 15.0524H34.149V16.6554H33.4356V15.0524ZM32.4227 15.0524H33.1361V16.6554H32.4227V15.0524ZM31.4142 15.0524H32.1276V16.6554H31.4142V15.0524ZM30.4057 15.0524H31.1191V16.6554H30.4057V15.0524ZM29.4016 15.0524H30.0754V16.6554H29.4016V15.0524ZM28.3887 15.0524H29.111V16.6554H28.3887V15.0524ZM35.9193 24.5604H28.6265V17.5891H35.9193V24.5604ZM26.8077 13.652V13.3922C26.8204 13.3855 26.8309 13.3752 26.8379 13.3628C26.8449 13.3503 26.8482 13.336 26.8474 13.3217C26.8474 13.3007 26.839 13.2805 26.8242 13.2657C26.8093 13.2508 26.7891 13.2424 26.7681 13.2424C26.7573 13.2412 26.7464 13.2422 26.7361 13.2454C26.7257 13.2485 26.7161 13.2538 26.7079 13.2608C26.6996 13.2678 26.6929 13.2765 26.6881 13.2862C26.6833 13.2959 26.6806 13.3065 26.68 13.3173C26.6812 13.3312 26.6853 13.3447 26.6921 13.3569C26.699 13.369 26.7084 13.3796 26.7197 13.3878V13.652H26.8077ZM38.4604 16.4264H38.5V16.171C38.5127 16.1643 38.5231 16.1541 38.5302 16.1416C38.5372 16.1291 38.5405 16.1149 38.5397 16.1006C38.5397 16.0795 38.5313 16.0594 38.5164 16.0445C38.5016 16.0296 38.4814 16.0213 38.4604 16.0213C38.4494 16.0207 38.4384 16.0223 38.428 16.0259C38.4176 16.0296 38.4081 16.0353 38.3999 16.0426C38.3917 16.05 38.3851 16.0589 38.3803 16.0689C38.3756 16.0788 38.3729 16.0896 38.3723 16.1006C38.3735 16.1168 38.3796 16.1322 38.3898 16.1448C38.4001 16.1574 38.4139 16.1666 38.4296 16.171V16.4308H38.4736V16.3428H38.4296V24.8511H38.5176V16.3384H38.478L38.4604 16.4264ZM25.9666 16.3384V24.8511H26.0591V16.171C26.0714 16.1639 26.0816 16.1536 26.0886 16.1412C26.0955 16.1288 26.099 16.1148 26.0987 16.1006C26.0994 16.0894 26.0976 16.0782 26.0936 16.0678C26.0897 16.0574 26.0835 16.0479 26.0756 16.04C26.0677 16.0321 26.0582 16.0259 26.0478 16.0219C26.0374 16.018 26.0262 16.0162 26.015 16.0169C26.0037 16.0163 25.9923 16.018 25.9817 16.0219C25.971 16.0259 25.9613 16.0319 25.953 16.0398C25.9448 16.0476 25.9382 16.057 25.9337 16.0675C25.9293 16.0779 25.927 16.0892 25.927 16.1006C25.9266 16.1148 25.9302 16.1288 25.9371 16.1412C25.9441 16.1536 25.9543 16.1639 25.9666 16.171V16.3428V16.3384ZM32.2421 18.5887C31.7536 18.6086 31.2816 18.7717 30.8851 19.0578C30.4886 19.3439 30.1849 19.7403 30.012 20.1976C29.839 20.655 29.8044 21.1531 29.9124 21.63C30.0204 22.1069 30.2663 22.5414 30.6195 22.8796C30.9727 23.2178 31.4175 23.4446 31.8986 23.5319C32.3797 23.6191 32.8759 23.5629 33.3253 23.3703C33.7747 23.1777 34.1576 22.8572 34.4262 22.4486C34.6948 22.04 34.8373 21.5615 34.836 21.0725C34.821 20.4047 34.5436 19.7697 34.0639 19.3049C33.5843 18.8401 32.9409 18.5828 32.2729 18.5887H32.2421ZM33.0744 21.1386C33.0699 21.299 33.0187 21.4546 32.9273 21.5865C32.8359 21.7184 32.7081 21.8209 32.5595 21.8815C32.4109 21.9421 32.248 21.9582 32.0904 21.9279C31.9328 21.8975 31.7874 21.8221 31.6719 21.7106C31.5565 21.5992 31.4759 21.4566 31.4399 21.3002C31.404 21.1438 31.4143 20.9803 31.4696 20.8297C31.5249 20.679 31.6227 20.5477 31.7513 20.4516C31.8798 20.3556 32.0335 20.299 32.1937 20.2886V18.69H32.2729V20.2842C32.4737 20.2865 32.6665 20.3629 32.8144 20.4986C32.9623 20.6343 33.0549 20.8199 33.0744 21.0197H34.2106V21.1386H33.0744ZM32.3786 21.0241H33.0524C33.0352 20.8422 32.9516 20.6729 32.8176 20.5487C32.6835 20.4244 32.5085 20.3538 32.3258 20.3503V21.0241H32.3786ZM32.2862 21.1694C32.274 21.1706 32.2617 21.1694 32.25 21.1659C32.2384 21.1623 32.2275 21.1565 32.2181 21.1487C32.2087 21.1409 32.2009 21.1313 32.1952 21.1205C32.1895 21.1097 32.186 21.0979 32.1849 21.0857C32.184 21.0663 32.1895 21.0471 32.2007 21.0312C32.2118 21.0153 32.228 21.0035 32.2465 20.9977V20.3195C32.0506 20.3217 31.8633 20.4003 31.7243 20.5384C31.5853 20.6765 31.5057 20.8634 31.5023 21.0593C31.4953 21.2649 31.5702 21.4648 31.7106 21.6151C31.851 21.7654 32.0454 21.8538 32.2509 21.8608C32.4565 21.8678 32.6564 21.7929 32.8067 21.6525C32.957 21.5121 33.0454 21.3177 33.0524 21.1122H32.3698C32.3504 21.1332 32.3236 21.1458 32.295 21.1474L32.2862 21.1694ZM28.9084 24.2785H35.6023V17.8753H28.9304L28.9084 24.2785ZM32.2774 24.0804C31.6895 24.0545 31.1221 23.8565 30.6458 23.5109C30.1695 23.1654 29.8052 22.6875 29.5981 22.1367C29.391 21.5858 29.3503 20.9863 29.4811 20.4126C29.6118 19.8388 29.9082 19.3161 30.3335 18.9094C30.7587 18.5026 31.2941 18.2298 31.8731 18.1247C32.4521 18.0196 33.0492 18.0869 33.5903 18.3183C34.1314 18.5496 34.5926 18.9349 34.9166 19.4261C35.2406 19.9173 35.4132 20.4929 35.4129 21.0813C35.391 21.8936 35.0493 22.6643 34.4621 23.2259C33.8749 23.7875 33.0897 24.0946 32.2774 24.0804Z" fill="black"/>
</svg>
