<svg width="199" height="184" viewBox="0 0 199 184" fill="none" xmlns="http://www.w3.org/2000/svg">
<path d="M73.9322 103.928V183.989H0V120.783C0 86.562 4.08606 61.7902 12.2582 46.4675C22.9841 26.0372 39.9668 10.5867 63.2063 0.116211L80.0613 26.931C66.0155 32.8047 55.6726 41.6153 49.0328 53.3627C42.3929 64.8548 38.6899 81.7098 37.9238 103.928H73.9322ZM192.683 103.928V183.989H118.751V120.783C118.751 86.562 122.837 61.7902 131.009 46.4675C141.735 26.0372 158.718 10.5867 181.957 0.116211L198.812 26.931C184.767 32.8047 174.424 41.6153 167.784 53.3627C161.144 64.8548 157.441 81.7098 156.675 103.928H192.683Z" fill="#F6F6F6"/>
</svg>
